<svg width="532" height="36" viewBox="0 0 532 36" fill="none" xmlns="http://www.w3.org/2000/svg">
    <path fill-rule="evenodd" clip-rule="evenodd" d="M0 0.828H11.764C13.929 0.828 15.8684 1.19913 17.5563 1.97402C19.2227 2.70855 20.5552 3.73261 21.5032 5.06679C22.4468 6.39486 22.93 7.86862 22.93 9.464C22.93 11.2992 22.4509 12.9064 21.4325 14.2164C20.7625 15.0846 19.9321 15.7949 18.9551 16.3522C20.2042 16.9526 21.2766 17.8263 22.1632 18.9647C23.4196 20.5378 24.034 22.4179 24.034 24.552C24.034 27.9507 22.7985 30.6383 20.2589 32.4486C17.8454 34.1907 14.853 35.028 11.35 35.028H0V0.828ZM19.676 31.636C21.9147 30.0413 23.034 27.68 23.034 24.552C23.034 22.62 22.482 20.964 21.378 19.584C20.4077 18.3365 19.1994 17.4524 17.753 16.9317C17.7066 16.9149 17.6599 16.8986 17.6129 16.8826C17.5405 16.858 17.4675 16.8342 17.3939 16.8113C17.3574 16.8 17.3208 16.7889 17.284 16.778L15.352 16.502V16.318L17.284 16.042C17.3214 16.0274 17.3585 16.0126 17.3955 15.9976C17.4413 15.979 17.4868 15.9601 17.532 15.941C17.5923 15.9154 17.6521 15.8894 17.7113 15.8628C18.9225 15.3195 19.8994 14.5666 20.642 13.604C21.5007 12.5 21.93 11.12 21.93 9.464C21.93 8.084 21.516 6.81133 20.688 5.646C19.86 4.48067 18.6793 3.56067 17.146 2.886C15.6127 2.18067 13.8187 1.828 11.764 1.828H1V34.028H11.35C14.6927 34.028 17.468 33.2307 19.676 31.636ZM13.2357 9.03793L13.2189 9.02111C12.811 8.61324 12.1898 8.348 11.212 8.348H9.452V13.34H11.212C12.2022 13.34 12.8296 13.0828 13.2357 12.6965C13.6822 12.2702 13.938 11.689 13.938 10.844C13.938 9.99783 13.6823 9.4439 13.2533 9.05394L13.2357 9.03793ZM8.452 14.34V7.348H11.212C12.3773 7.348 13.282 7.67 13.926 8.314C14.6007 8.92733 14.938 9.77067 14.938 10.844C14.938 11.9173 14.6007 12.776 13.926 13.42C13.282 14.0333 12.3773 14.34 11.212 14.34H8.452ZM13.7471 26.7213C13.2252 27.1969 12.4009 27.508 11.12 27.508H9.452V20.86H11.12C12.3088 20.86 13.1252 21.185 13.6929 21.7308C14.2523 22.2687 14.582 23.0426 14.582 24.184C14.582 25.4469 14.2509 26.233 13.7471 26.7213ZM8.452 28.508H11.12C12.5613 28.508 13.6653 28.1553 14.432 27.45C15.1987 26.714 15.582 25.6253 15.582 24.184C15.582 22.8347 15.1833 21.7767 14.386 21.01C13.5887 20.2433 12.5 19.86 11.12 19.86H8.452V28.508ZM39.9661 0.828H49.4181V10.187L49.5199 10.0028L57.1012 0.828H68.0139L56.9437 14.3026L68.8692 35.028H57.9461L50.604 21.6471L49.4181 23.112V35.028H39.9661V0.828ZM48.4181 22.758L50.7641 19.86L58.5381 34.028H67.1401L55.7321 14.202L65.8981 1.828H57.5721L50.3501 10.568L48.4181 14.064V1.828H40.9661V34.028H48.4181V22.758ZM75.2625 33.8757C72.9568 32.5056 71.1607 30.4616 69.8606 27.7964L69.8585 27.7921C68.549 25.0749 67.9193 21.7731 67.9193 17.928C67.9193 14.0846 68.5485 10.7965 69.8596 8.10763C71.1584 5.41354 72.9551 3.36518 75.2673 2.02347C77.5514 0.66749 80.1368 0 82.9954 0C85.8541 0 88.4396 0.667554 90.7237 2.02367C93.0357 3.36538 94.8324 5.41367 96.1311 8.10763C97.4423 10.7965 98.0714 14.0846 98.0714 17.928C98.0714 21.7731 97.4417 25.0749 96.1322 27.7921L96.1301 27.7964C94.83 30.4616 93.0339 32.5056 90.7282 33.8757L90.7189 33.8812C88.4351 35.2051 85.8515 35.856 82.9954 35.856C80.1392 35.856 77.5556 35.2051 75.2718 33.8811L75.2625 33.8757ZM90.2174 2.886C88.1013 1.62867 85.694 1 82.9954 1C80.2967 1 77.8894 1.62867 75.7734 2.886C73.6573 4.11267 71.986 5.99867 70.7594 8.544C69.5327 11.0587 68.9193 14.1867 68.9193 17.928C68.9193 21.6693 69.5327 24.8127 70.7594 27.358C71.986 29.8727 73.6573 31.7587 75.7734 33.016C77.8894 34.2427 80.2967 34.856 82.9954 34.856C85.694 34.856 88.1013 34.2427 90.2174 33.016C92.3334 31.7587 94.0047 29.8727 95.2314 27.358C96.458 24.8127 97.0714 21.6693 97.0714 17.928C97.0714 14.1867 96.458 11.0587 95.2314 8.544C94.0047 5.99867 92.3334 4.11267 90.2174 2.886ZM86.8538 26.0542C87.7458 24.4054 88.2514 21.7411 88.2514 17.928C88.2514 14.1149 87.7458 11.4506 86.8538 9.80182L86.8477 9.79059C86.43 8.99425 85.9104 8.4415 85.3033 8.08193C84.6945 7.72136 83.9383 7.52 82.9954 7.52C82.0527 7.52 81.2909 7.72126 80.6723 8.08407C80.0564 8.44531 79.5258 8.99988 79.0939 9.7962C78.2288 11.4492 77.7393 14.1168 77.7393 17.928C77.7393 21.7392 78.2288 24.4067 79.0939 26.0598C79.5258 26.8561 80.0564 27.4107 80.6723 27.7719C81.2909 28.1347 82.0527 28.336 82.9954 28.336C83.9383 28.336 84.6945 28.1346 85.3033 27.7741C85.9104 27.4145 86.4301 26.8618 86.8478 26.0655L86.8538 26.0542ZM78.2113 26.53C77.23 24.6593 76.7393 21.792 76.7393 17.928C76.7393 14.064 77.23 11.1967 78.2113 9.326C79.2234 7.45533 80.818 6.52 82.9954 6.52C85.1727 6.52 86.752 7.45533 87.7334 9.326C88.7454 11.1967 89.2514 14.064 89.2514 17.928C89.2514 21.792 88.7454 24.6593 87.7334 26.53C86.752 28.4007 85.1727 29.336 82.9954 29.336C80.818 29.336 79.2234 28.4007 78.2113 26.53ZM102.079 0.828H114.947C118.537 0.828 121.513 1.69457 123.764 3.53511C126.048 5.3704 127.171 7.90858 127.171 11.028C127.171 14.0425 126.035 16.5136 123.761 18.3397L123.754 18.3455C121.502 20.1192 118.531 20.952 114.947 20.952H111.531V35.028H102.079V0.828ZM110.531 34.028H103.079V1.828H114.947C118.381 1.828 121.111 2.656 123.135 4.312C125.159 5.93733 126.171 8.176 126.171 11.028C126.171 13.7573 125.159 15.9347 123.135 17.56C121.111 19.1547 118.381 19.952 114.947 19.952H110.531V34.028ZM116.923 9.06813L116.913 9.06063C116.361 8.63599 115.449 8.348 114.027 8.348H111.531V13.432H114.027C115.449 13.432 116.367 13.1593 116.923 12.7578C117.427 12.3655 117.719 11.7947 117.719 10.89C117.719 9.97856 117.424 9.43433 116.933 9.07539L116.923 9.06813ZM114.027 14.432C115.56 14.432 116.725 14.1407 117.523 13.558C118.32 12.9447 118.719 12.0553 118.719 10.89C118.719 9.72467 118.32 8.85067 117.523 8.268C116.725 7.65467 115.56 7.348 114.027 7.348H110.531V14.432H114.027ZM131.356 30.8149L131.35 30.8066C130.291 29.1997 129.759 27.4132 129.759 25.472C129.759 23.9377 130.102 22.5041 130.794 21.1883L131.149 20.5147L140.079 22.4642L138.964 23.7385C138.878 23.8366 138.77 24.0178 138.676 24.3352C138.603 24.6858 138.567 25.0338 138.567 25.38C138.567 26.2678 138.843 26.9601 139.378 27.5244C139.908 28.0249 140.7 28.336 141.891 28.336C143.082 28.336 143.873 28.0104 144.404 27.4789C144.982 26.9008 145.307 26.1139 145.307 25.012C145.307 23.6977 144.848 22.8098 143.98 22.1932L143.97 22.1859C143.052 21.5164 141.791 21.136 140.097 21.136H139.097V14.26H140.097C141.506 14.26 142.542 13.885 143.303 13.2194C144.076 12.539 144.479 11.6435 144.479 10.43C144.479 9.43025 144.203 8.74844 143.745 8.26922C143.295 7.79891 142.657 7.52 141.707 7.52C140.855 7.52 140.21 7.7405 139.71 8.12878C139.304 8.4649 139.073 8.92891 139.073 9.648C139.073 10.145 139.234 10.6483 139.618 11.1758L140.427 12.2888L132.473 14.8787L132.05 14.2607C131.139 12.9292 130.679 11.4444 130.679 9.832C130.679 7.96603 131.157 6.25985 132.124 4.74113L132.128 4.73437L132.132 4.72769C133.132 3.21046 134.523 2.05096 136.27 1.24396C138.051 0.404392 140.087 0 142.351 0C144.641 0 146.645 0.402445 148.322 1.25755C150.003 2.09866 151.306 3.26519 152.181 4.76787C153.077 6.25248 153.517 7.91868 153.517 9.74C153.517 11.5478 153.08 13.1719 152.172 14.5732C151.56 15.5177 150.752 16.3341 149.766 17.0296C151.107 17.5941 152.213 18.3823 153.044 19.4181C154.215 20.8772 154.759 22.7249 154.759 24.874C154.759 27.033 154.242 28.9712 153.178 30.6526C152.117 32.3293 150.617 33.6161 148.713 34.5177C146.81 35.4192 144.651 35.856 142.259 35.856C139.867 35.856 137.708 35.4192 135.805 34.5177C133.917 33.6236 132.42 32.3939 131.356 30.8149ZM148.704 17.6953C152.074 18.8439 153.759 21.2368 153.759 24.874C153.759 26.8673 153.284 28.6153 152.333 30.118C151.382 31.6207 150.033 32.786 148.285 33.614C146.537 34.442 144.529 34.856 142.259 34.856C139.99 34.856 137.981 34.442 136.233 33.614C134.485 32.786 133.136 31.6667 132.185 30.256C131.234 28.8147 130.759 27.22 130.759 25.472C130.759 24.092 131.066 22.8193 131.679 21.654L138.211 23.08C138.012 23.3074 137.853 23.6137 137.733 23.9991C137.723 24.0296 137.714 24.0606 137.705 24.092C137.613 24.5213 137.567 24.9507 137.567 25.38C137.567 26.5147 137.935 27.4653 138.671 28.232C139.438 28.968 140.511 29.336 141.891 29.336C143.271 29.336 144.344 28.9527 145.111 28.186C145.908 27.3887 146.307 26.3307 146.307 25.012C146.307 23.4173 145.725 22.206 144.559 21.378C143.424 20.55 141.937 20.136 140.097 20.136V15.26C141.692 15.26 142.98 14.8307 143.961 13.972C144.973 13.0827 145.479 11.902 145.479 10.43C145.479 9.234 145.142 8.28333 144.467 7.578C143.792 6.87267 142.872 6.52 141.707 6.52C140.665 6.52 139.79 6.796 139.085 7.348C138.41 7.9 138.073 8.66667 138.073 9.648C138.073 10.0667 138.153 10.4755 138.311 10.8744C138.432 11.1766 138.598 11.4732 138.809 11.764L132.875 13.696C132.078 12.5307 131.679 11.2427 131.679 9.832C131.679 8.14533 132.109 6.62734 132.967 5.278C133.856 3.92867 135.098 2.886 136.693 2.15C138.318 1.38333 140.204 1 142.351 1C144.529 1 146.368 1.38333 147.871 2.15C149.404 2.91667 150.555 3.95933 151.321 5.278C152.118 6.59667 152.517 8.084 152.517 9.74C152.517 12.729 151.207 15.0182 148.586 16.6077C148.362 16.7433 148.129 16.8738 147.887 16.9992C147.851 17.0176 147.815 17.0358 147.779 17.054V17.422C147.851 17.4403 147.923 17.4591 147.993 17.4783C148.238 17.5449 148.475 17.6172 148.704 17.6953ZM176.606 35.028V18.3459L167.718 35.028H158.666V0.828H168.118V17.5101L177.006 0.828H186.058V35.028H176.606ZM166.014 23.586L165.738 23.448L167.118 18.388V1.828H159.666V34.028H167.118L178.71 12.27L178.986 12.408L177.606 17.468V34.028H185.058V1.828H177.606L166.014 23.586ZM191.182 0.828H200.634V13.34H207.604V0.828H217.056V35.028H207.604V20.86H200.634V35.028H191.182V0.828ZM199.634 34.028H192.182V1.828H199.634V14.34H208.604V1.828H216.056V34.028H208.604V19.86H199.634V34.028ZM222.171 0.828H244.089V8.348H231.623V13.248H240.731V20.768H231.623V27.508H244.641V35.028H222.171V0.828ZM230.623 28.508V19.768H239.731V14.248H230.623V7.348H243.089V1.828H223.171V34.028H243.641V28.508H230.623ZM260.745 0.828H270.197V13.34H277.167V0.828H286.618V35.028H277.167V20.86H270.197V35.028H260.745V0.828ZM269.197 34.028H261.745V1.828H269.197V14.34H278.167V1.828H285.618V34.028H278.167V19.86H269.197V34.028ZM309.673 35.028V18.3459L300.786 35.028H291.733V0.828H301.185V17.5101L310.073 0.828H319.125V35.028H309.673ZM299.081 23.586L298.805 23.448L298.808 23.4401L300.185 18.388V1.828H292.733V34.028H300.185L311.777 12.2705L312.053 12.408L312.051 12.4159L310.673 17.468V34.028H318.125V1.828H310.673L299.081 23.586ZM351.182 0.828V35.028H341.73V20.9303C341.017 21.3124 340.3 21.6368 339.579 21.9023L339.572 21.905L339.565 21.9075C338.307 22.3494 336.92 22.562 335.416 22.562C331.687 22.562 328.716 21.5073 326.699 19.2362C324.701 16.9876 323.79 13.7156 323.79 9.602V0.828H333.242V7.9C333.242 10.7397 333.612 12.6022 334.211 13.6547C334.723 14.5257 335.612 15.042 337.164 15.042C338.052 15.042 338.832 14.8811 339.518 14.5762C340.145 14.2973 340.881 13.8373 341.73 13.1712V0.828H351.182ZM342.73 13.65C341.687 14.5087 340.752 15.122 339.924 15.49C339.096 15.858 338.176 16.042 337.164 16.042C335.354 16.042 334.082 15.4133 333.346 14.156C332.61 12.868 332.242 10.7827 332.242 7.9V1.828H324.79V9.602C324.79 17.5753 328.332 21.562 335.416 21.562C336.826 21.562 338.099 21.3627 339.234 20.964C340.066 20.6575 340.898 20.265 341.73 19.7865C342.063 19.5948 342.396 19.3893 342.73 19.17V34.028H350.182V1.828H342.73V13.65ZM356.317 0.828H378.235V8.348H365.769V13.248H374.877V20.768H365.769V27.508H378.787V35.028H356.317V0.828ZM364.769 28.508V19.768H373.877V14.248H364.769V7.348H377.235V1.828H357.317V34.028H377.787V28.508H364.769ZM381.915 0.828H403.833V8.348H391.367V35.028H381.915V0.828ZM390.367 34.028H382.915V1.828H402.833V7.348H390.367V34.028ZM411.83 33.8811L411.821 33.8757C409.515 32.5056 407.719 30.4616 406.419 27.7964L406.417 27.7921C405.107 25.0749 404.478 21.7731 404.478 17.928C404.478 14.0846 405.107 10.7965 406.418 8.10763C407.716 5.4138 409.513 3.36558 411.825 2.02386C414.109 0.667619 416.695 0 419.554 0C422.412 0 424.997 0.667361 427.281 2.02308C429.593 3.36478 431.39 5.41328 432.689 8.10763C434.001 10.7965 434.63 14.0846 434.63 17.928C434.63 21.7731 434 25.0749 432.69 27.7921L432.688 27.7964C431.388 30.4616 429.592 32.5056 427.286 33.8757L427.277 33.8812C424.993 35.2051 422.41 35.856 419.554 35.856C416.697 35.856 414.114 35.2051 411.83 33.8811ZM431.79 8.544L432.688 8.10558L432.689 8.10763L432.69 8.10986L431.79 8.544ZM431.79 27.358C430.563 29.8727 428.892 31.7587 426.776 33.016C424.66 34.2427 422.252 34.856 419.554 34.856C416.855 34.856 414.448 34.2427 412.332 33.016C410.216 31.7587 408.544 29.8727 407.318 27.358C406.091 24.8127 405.478 21.6693 405.478 17.928C405.478 14.1867 406.091 11.0587 407.318 8.544C408.544 5.99867 410.216 4.11267 412.332 2.886C414.448 1.62867 416.855 1 419.554 1C422.252 1 424.66 1.62867 426.776 2.886C428.892 4.11267 430.563 5.99867 431.79 8.544C433.016 11.0587 433.63 14.1867 433.63 17.928C433.63 21.6693 433.016 24.8127 431.79 27.358ZM423.406 26.0655L423.412 26.0541C424.304 24.4054 424.81 21.7411 424.81 17.928C424.81 14.1149 424.304 11.4506 423.412 9.80182L423.406 9.79059C422.988 8.99422 422.469 8.4415 421.862 8.08193C421.253 7.72136 420.497 7.52 419.554 7.52C418.611 7.52 417.849 7.72126 417.231 8.08407C416.615 8.44525 416.084 8.9997 415.652 9.7958C414.787 11.4488 414.298 14.1165 414.298 17.928C414.298 21.7395 414.787 24.4072 415.652 26.0602C416.084 26.8563 416.615 27.4107 417.231 27.7719C417.849 28.1347 418.611 28.336 419.554 28.336C420.497 28.336 421.253 28.1346 421.862 27.7741C422.469 27.4145 422.988 26.8618 423.406 26.0655ZM414.77 26.53C413.788 24.6593 413.298 21.792 413.298 17.928C413.298 14.064 413.788 11.1967 414.77 9.326C415.782 7.45533 417.376 6.52 419.554 6.52C421.731 6.52 423.31 7.45533 424.292 9.326C425.304 11.1967 425.81 14.064 425.81 17.928C425.81 21.792 425.304 24.6593 424.292 26.53C423.31 28.4007 421.731 29.336 419.554 29.336C417.376 29.336 415.782 28.4007 414.77 26.53ZM450.714 0.828H460.166V13.34H467.136V0.828H476.588V35.028H467.136V20.86H460.166V35.028H450.714V0.828ZM459.166 34.028H451.714V1.828H459.166V14.34H468.136V1.828H475.588V34.028H468.136V19.86H459.166V34.028ZM481.703 0.828H503.621V8.348H491.155V13.248H500.263V20.768H491.155V27.508H504.173V35.028H481.703V0.828ZM490.155 28.508V19.768H499.263V14.248H490.155V7.348H502.621V1.828H482.703V34.028H503.173V28.508H490.155ZM506.715 8.348V0.828H531.163V8.348H523.665V35.028H514.213V8.348H506.715ZM515.213 7.348V34.028H522.665V7.348H530.163V1.828H507.715V7.348H515.213Z" fill="white"/>
</svg>
