<svg width="38" height="38" viewBox="0 0 38 38" fill="none" xmlns="http://www.w3.org/2000/svg">
<path d="M9.04762 0C4.06117 0 0 4.06117 0 9.04762V28.9524C0 33.9388 4.06117 38 9.04762 38H28.9524C33.9388 38 38 33.9388 38 28.9524V9.04762C38 4.06117 33.9388 0 28.9524 0H9.04762ZM8.14286 10.8571H29.8571C30.02 10.8571 30.1736 10.8755 30.3184 10.9208L21.4245 19.8058C20.0854 21.1449 17.9057 21.1449 16.5667 19.8058L7.68164 10.9208C7.8264 10.8755 7.98 10.8571 8.14286 10.8571ZM6.39695 12.2055L13.2003 19L6.39695 25.7945C6.35171 25.6498 6.33333 25.4962 6.33333 25.3333V12.6667C6.33333 12.5038 6.35171 12.3502 6.39695 12.2055ZM31.6031 12.2055C31.6483 12.3502 31.6667 12.5038 31.6667 12.6667V25.3333C31.6667 25.4962 31.6483 25.6498 31.6031 25.7945L24.7908 19L31.6031 12.2055ZM14.4762 20.2759L15.282 21.0905C16.3044 22.1129 17.6521 22.619 18.9912 22.619C20.3393 22.619 21.678 22.1129 22.7003 21.0905L23.515 20.2759L30.3184 27.0792C30.1736 27.1245 30.02 27.1429 29.8571 27.1429H8.14286C7.98 27.1429 7.8264 27.1245 7.68164 27.0792L14.4762 20.2759Z" fill="#808080"/>
</svg>
