<svg width="669" height="144" viewBox="0 0 669 144" fill="none" xmlns="http://www.w3.org/2000/svg">
<rect width="669" height="144" fill="#1E1E1E"/>
<rect width="669" height="144" fill="white"/>
<path d="M38.262 107V39.8H84.246C100.566 39.8 108.246 47.576 108.246 57.464C108.246 64.952 103.734 69.752 97.302 71.96C104.502 74.072 110.358 79.16 110.358 88.472C110.358 99.128 102.774 107 86.358 107H38.262ZM61.494 93.464H78.774C83.862 93.464 86.838 90.584 86.838 85.976C86.838 81.656 83.862 78.776 78.774 78.776H61.494V93.464ZM61.494 65.912H77.718C82.326 65.912 85.014 63.416 85.014 59.288C85.014 55.448 82.326 52.856 77.718 52.856H61.494V65.912ZM164.918 107V39.8H188.246V81.944H188.342L212.918 39.8H238.262V107H214.934V64.856H214.838L190.358 107H164.918ZM295.325 107V39.8H318.941V64.376H342.845V39.8H366.557V107H342.845V79.352H318.941V107H295.325ZM423.575 107V39.8H446.903V81.944H446.999L471.575 39.8H496.919V107H473.591V64.856H473.495L449.015 107H423.575ZM550.813 88.28C561.853 87.512 565.117 84.248 566.077 63.896L567.037 39.8H630.781V107H607.165V55.256H586.429L586.045 66.008C584.797 98.84 575.869 107.48 555.805 107.48H554.269L550.813 88.28Z" fill="black"/>
</svg>
