<svg width="38" height="39" viewBox="0 0 38 39" fill="none" xmlns="http://www.w3.org/2000/svg">
<path d="M9.04762 0.990234C4.06117 0.990234 0 5.05141 0 10.0379V29.9426C0 34.9291 4.06117 38.9902 9.04762 38.9902H28.9524C33.9388 38.9902 38 34.9291 38 29.9426V10.0379C38 5.05141 33.9388 0.990234 28.9524 0.990234H9.04762ZM12.672 8.26721C13.2402 8.29163 13.762 8.61176 14.0768 9.10305C14.4351 9.66219 14.9911 10.53 15.7149 11.6618C16.3754 12.6942 16.4215 14.0275 15.8316 15.1042L14.5062 16.9897C14.1479 17.5 14.0765 18.1531 14.3172 18.7285C14.6917 19.6242 15.4179 21.0008 16.7081 22.291C17.9982 23.5812 19.3748 24.3073 20.2706 24.6819C20.846 24.9226 21.4991 24.8511 22.0094 24.4928L23.8949 23.1675C24.9716 22.5776 26.3049 22.6246 27.3372 23.2841C28.4691 24.0079 29.3369 24.564 29.896 24.9222C30.3873 25.2371 30.7074 25.7589 30.7319 26.3271C30.8712 29.5517 28.373 30.858 27.6465 30.858C27.1434 30.858 21.0957 31.5453 14.2747 24.7243C7.45374 17.9033 8.14109 11.8556 8.14109 11.3526C8.14109 10.6261 9.4474 8.12787 12.672 8.26721Z" fill="#808080"/>
</svg>
