<svg width="38" height="38" viewBox="0 0 38 38" fill="none" xmlns="http://www.w3.org/2000/svg">
<path fill-rule="evenodd" clip-rule="evenodd" d="M2.66 2.66C2.26498e-07 5.34533 0 9.63933 0 18.24V19.76C0 28.348 2.26498e-07 32.642 2.66 35.34C5.34533 38 9.63933 38 18.24 38H19.76C28.348 38 32.642 38 35.34 35.34C38 32.6547 38 28.3607 38 19.76V18.24C38 9.652 38 5.358 35.34 2.66C32.6547 2.26498e-07 28.3607 0 19.76 0H18.24C9.652 0 5.358 2.26498e-07 2.66 2.66ZM6.40933 11.5647C6.612 21.4447 11.552 27.3727 20.216 27.3727H20.7227V21.7233C23.902 22.04 26.3087 24.3707 27.2713 27.3727H31.768C31.3069 25.6669 30.4891 24.0781 29.3691 22.7113C28.249 21.3446 26.8519 20.2308 25.27 19.4433C26.6876 18.5801 27.9119 17.4336 28.8665 16.0759C29.8211 14.7182 30.4855 13.1781 30.818 11.552H26.7393C25.8527 14.6933 23.218 17.5433 20.7227 17.8093V11.5647H16.6313V22.5087C14.098 21.8753 10.906 18.81 10.7667 11.5647H6.40933Z" fill="#808080"/>
</svg>
