<svg width="97" height="98" viewBox="0 0 97 98" fill="none" xmlns="http://www.w3.org/2000/svg">
<path d="M44.8611 1.01147C44.5007 1.04941 43.3815 1.1822 42.395 1.29602C27.3897 3.00333 13.5225 12.4125 5.89649 26.052C3.12685 31.0222 1.11602 37.1875 0.262362 43.3907C-0.117041 46.1035 -0.0791004 53.388 0.338243 56.1007C2.04555 67.2172 6.61736 76.3039 14.3382 83.9299C15.5333 85.1061 17.2786 86.6806 18.2081 87.4394C30.368 97.1521 46.5495 100.415 61.6497 96.1846C79.273 91.2524 92.8746 76.3988 96.1564 58.491C99.1157 42.4612 94.2025 26.5832 82.7824 15.1442C75.2134 7.59411 66.1077 3.0223 55.2947 1.3719C53.3977 1.08735 46.3408 0.840736 44.8611 1.01147ZM33.9913 17.4017C35.0915 18.4071 34.6932 19.3935 32.8341 20.3989C26.5929 23.7756 21.7935 28.8027 18.7013 35.2336C16.7664 39.2552 15.761 43.3149 15.5143 47.9436C15.4005 50.0493 15.3436 50.3528 14.9642 50.7322C14.3761 51.3203 13.4845 51.3013 12.8965 50.6942C12.4791 50.2959 12.4222 50.0682 12.4222 48.8921C12.4222 44.4151 13.7881 38.5534 15.8368 34.1333C18.4927 28.4612 23.1024 23.0927 28.3571 19.5453C30.1214 18.3502 32.6254 17.0223 33.0997 17.0223C33.3842 17.0223 33.7826 17.193 33.9913 17.4017ZM29.8558 30.4152C30.4818 31.2119 30.368 31.8 29.2867 33.052C26.6878 36.1252 24.8856 39.7105 23.8991 43.8271C23.349 46.0845 23.0645 46.4639 22.0401 46.388C21.471 46.3501 21.1864 46.1983 20.8829 45.7999C20.5035 45.2878 20.5035 45.2688 20.826 43.6184C21.7555 39.1414 24.3734 33.8867 27.162 30.9084C27.9588 30.0737 28.2054 29.9219 28.7745 29.9219C29.3056 29.9219 29.5712 30.0547 29.8558 30.4152ZM51.5576 31.5344C58.6145 32.7675 64.1917 37.9273 66.1456 45.0791C66.7337 47.1658 66.7337 51.7566 66.1456 53.8433C64.2866 60.6156 59.2785 65.5479 52.5251 67.2362C50.5332 67.7294 46.1891 67.6915 44.1593 67.1603C39.5875 65.9462 35.6606 63.1576 33.2135 59.3826C29.4005 53.4829 29.3056 45.8948 32.9479 39.9761C36.8558 33.6211 44.2731 30.2634 51.5576 31.5344ZM84.0345 48.2281C84.4518 48.6265 84.5087 48.8541 84.5087 50.0303C84.5087 53.2742 83.693 57.7891 82.4789 61.2985C79.6334 69.5316 73.8855 76.3988 66.0698 80.9137C64.5901 81.7673 64.1917 81.9001 63.6416 81.8242C62.9397 81.7104 62.5603 81.35 62.3706 80.6101C62.1809 79.8703 62.6172 79.2822 63.7933 78.6942C65.5576 77.8026 68.7066 75.621 70.4708 74.0654C75.4789 69.6644 79.2161 63.2714 80.6957 56.575C81.132 54.5641 81.4735 51.6807 81.4735 49.9354C81.4735 48.8541 81.5304 48.6265 81.9478 48.2281C82.2323 47.9246 82.6307 47.7539 82.9911 47.7539C83.3515 47.7539 83.7499 47.9246 84.0345 48.2281ZM76.2377 53.1224C76.6172 53.6346 76.6172 53.6536 76.2947 55.304C75.3651 59.7809 72.7472 65.0357 69.9586 68.014C69.1619 68.8487 68.9153 69.0004 68.3462 69.0004C67.815 69.0004 67.5494 68.8676 67.2649 68.5072C66.6578 67.7294 66.7527 67.1224 67.7391 65.9652C70.4898 62.6644 72.2351 59.2118 73.2215 55.0953C73.7716 52.8379 74.0562 52.4585 75.0806 52.5343C75.6497 52.5723 75.9342 52.724 76.2377 53.1224Z" fill="white"/>
<path d="M46.6819 44.4531C45.354 44.8704 43.8554 46.407 43.457 47.7539C42.831 49.8785 43.2483 51.6617 44.728 53.1414C47.9339 56.3284 53.2645 54.4313 53.7198 49.9354C54.0423 46.8812 51.4624 44.1116 48.3892 44.1685C47.9529 44.1685 47.1941 44.3013 46.6819 44.4531ZM50.0586 47.9246C50.5518 48.4368 50.6467 48.6644 50.6467 49.4612C50.6467 50.2769 50.5518 50.4856 50.0206 51.0167C49.4895 51.5479 49.2808 51.6427 48.4651 51.6427C47.6494 51.6427 47.4407 51.5479 46.9095 51.0167C46.3784 50.4856 46.2835 50.2769 46.2835 49.4801C46.2835 48.4937 46.7578 47.7349 47.6114 47.3555C48.3133 47.052 49.4326 47.2986 50.0586 47.9246Z" fill="white"/>
</svg>
